{"asset":{"version":"2.0","generator":"Blockbench 5.1.4 glTF exporter"},"scenes":[{"nodes":[20],"name":"blockbench_export"}],"scene":0,"nodes":[{"translation":[0,0.085625,0],"name":"neck"},{"translation":[0,0.28125,0],"name":"spine_3","children":[0]},{"translation":[0,0.25125,0],"name":"right_hand"},{"translation":[0.053125,0.35625,0],"name":"right_forearm","children":[2]},{"rotation":[0,0,0.6018150231520483,0.7986355100472928],"translation":[-0.04375,0.21875,0],"name":"right_arm","children":[3]},{"rotation":[0,0,0.7071067811865475,0.7071067811865476],"translation":[0,0.25,0],"name":"right_clavie","children":[4]},{"translation":[0,0.25125,0],"name":"left_hand"},{"translation":[-0.053125,0.35625,0],"name":"left_forearm","children":[6]},{"rotation":[0,0,-0.6018150231520483,0.7986355100472928],"translation":[0.04375,0.21875,0],"name":"left_arm","children":[7]},{"rotation":[0,0,-0.7071067811865475,0.7071067811865476],"translation":[0,0.25,0],"name":"left_clavie","children":[8]},{"translation":[0,0.148125,0],"name":"spine_2","children":[1,5,9]},{"translation":[0,0.178125,0],"name":"spine_1","children":[10]},{"translation":[0,0.85,0],"name":"spine","children":[11]},{"rotation":[0.48098876891938763,0,0,0.8767267557075077],"translation":[0,0.3125,0],"name":"right_foot"},{"translation":[0,0.34375,0],"name":"right_shin","children":[13]},{"rotation":[0,0,-1,6.123233995736766e-17],"translation":[-0.125,0.7825,0],"name":"right_thigh","children":[14]},{"rotation":[0.48098876891938763,0,0,0.8767267557075077],"translation":[0,0.3125,0],"name":"left_foot"},{"translation":[0,0.34375,0],"name":"left_shin","children":[16]},{"rotation":[0,0,1,6.123233995736766e-17],"translation":[0.125,0.7825,0],"name":"left_thigh","children":[17]},{"name":"pivot","children":[12,15,18]},{"name":"character","mesh":0,"children":[19],"skin":0}],"bufferViews":[{"buffer":0,"byteOffset":0,"byteLength":13776,"target":34962,"byteStride":12},{"buffer":0,"byteOffset":13776,"byteLength":13776,"target":34962,"byteStride":12},{"buffer":0,"byteOffset":27552,"byteLength":9184,"target":34962,"byteStride":8},{"buffer":0,"byteOffset":36736,"byteLength":9184,"target":34962,"byteStride":8},{"buffer":0,"byteOffset":45920,"byteLength":18368,"target":34962,"byteStride":16},{"buffer":0,"byteOffset":64288,"byteLength":3276,"target":34963},{"buffer":0,"byteOffset":67564,"byteLength":1280}],"buffers":[{"byteLength":68844,"uri":"data:application/octet-stream;base64,"}],"accessors":[{"bufferView":0,"componentType":5126,"count":1148,"max":[0.5466756224632263,2.001499891281128,0.24521687626838684],"min":[-0.5466756224632263,0.001500000013038516,-0.22353312373161316],"type":"VEC3"},{"bufferView":1,"componentType":5126,"count":1148,"max":[1,1,1],"min":[-1,-1,-1],"type":"VEC3"},{"bufferView":2,"componentType":5126,"count":1148,"max":[0.703125,0.9453125],"min":[0,0],"type":"VEC2"},{"bufferView":3,"componentType":5123,"count":1148,"max":[19,18,0,0],"min":[1,0,0,0],"type":"VEC4"},{"bufferView":4,"componentType":5126,"count":1148,"max":[1,0.49999499320983887,0,0],"min":[0.5000050067901611,0,0,0],"type":"VEC4"},{"bufferView":5,"componentType":5123,"count":1638,"max":[1147],"min":[0],"type":"SCALAR"},{"bufferView":6,"componentType":5126,"count":20,"max":[1,1,1.0328566234097248e-16,0,1,1,0.8433914184570312,0,0,0.8433914184570312,1,0,1.4262499809265137,1.268648624420166,0,1],"min":[-1,-1,-1.0328566234097248e-16,0,-1,-1,0,0,0,0,0.537299633026123,0,-1.4262499809265137,-1.543125033378601,-0.10647816956043243,1],"type":"MAT4"}],"materials":[{"pbrMetallicRoughness":{"metallicFactor":0,"roughnessFactor":1,"baseColorTexture":{"index":0}},"alphaMode":"MASK","alphaCutoff":0.05}],"textures":[{"sampler":0,"source":0,"name":"texture.png"}],"samplers":[{"magFilter":9728,"minFilter":9728,"wrapS":33071,"wrapT":33071}],"images":[{"mimeType":"image/png","name":"texture.png","uri":"texture.png"}],"meshes":[{"primitives":[{"mode":4,"attributes":{"POSITION":0,"NORMAL":1,"TEXCOORD_0":2,"JOINTS_0":3,"WEIGHTS_0":4},"indices":5,"material":0}]}],"skins":[{"inverseBindMatrices":6,"joints":[19,12,11,10,1,0,5,4,3,2,9,8,7,6,15,14,13,18,17,16],"skeleton":19}]}