{"asset":{"version":"2.0","generator":"Blockbench 5.1.4 glTF exporter"},"scenes":[{"nodes":[4],"name":"blockbench_export"}],"scene":0,"nodes":[{"translation":[0,0.75,0],"name":"CapeBone2"},{"translation":[0,0.75,7.654042494670958e-18],"name":"CapeBone1","children":[0]},{"rotation":[-1,0,0,6.123233995736766e-17],"translation":[0,0.4375,-0.1875],"name":"CapeBone","children":[1]},{"name":"ChestBone","children":[2]},{"name":"CapeAmature","mesh":0,"children":[3],"skin":0}],"bufferViews":[{"buffer":0,"byteOffset":0,"byteLength":480,"target":34962,"byteStride":12},{"buffer":0,"byteOffset":480,"byteLength":480,"target":34962,"byteStride":12},{"buffer":0,"byteOffset":960,"byteLength":320,"target":34962,"byteStride":8},{"buffer":0,"byteOffset":1280,"byteLength":320,"target":34962,"byteStride":8},{"buffer":0,"byteOffset":1600,"byteLength":640,"target":34962,"byteStride":16},{"buffer":0,"byteOffset":2240,"byteLength":120,"target":34963},{"buffer":0,"byteOffset":2360,"byteLength":256},{"buffer":0,"byteOffset":2616,"byteLength":8},{"buffer":0,"byteOffset":2624,"byteLength":32},{"buffer":0,"byteOffset":2656,"byteLength":8},{"buffer":0,"byteOffset":2664,"byteLength":32},{"buffer":0,"byteOffset":2696,"byteLength":8},{"buffer":0,"byteOffset":2704,"byteLength":32},{"buffer":0,"byteOffset":2736,"byteLength":8},{"buffer":0,"byteOffset":2744,"byteLength":32},{"buffer":0,"byteOffset":2776,"byteLength":8},{"buffer":0,"byteOffset":2784,"byteLength":32},{"buffer":0,"byteOffset":2816,"byteLength":8},{"buffer":0,"byteOffset":2824,"byteLength":32},{"buffer":0,"byteOffset":2856,"byteLength":8},{"buffer":0,"byteOffset":2864,"byteLength":32},{"buffer":0,"byteOffset":2896,"byteLength":8},{"buffer":0,"byteOffset":2904,"byteLength":32},{"buffer":0,"byteOffset":2936,"byteLength":8},{"buffer":0,"byteOffset":2944,"byteLength":32},{"buffer":0,"byteOffset":2976,"byteLength":8},{"buffer":0,"byteOffset":2984,"byteLength":32},{"buffer":0,"byteOffset":3016,"byteLength":8},{"buffer":0,"byteOffset":3024,"byteLength":32},{"buffer":0,"byteOffset":3056,"byteLength":8},{"buffer":0,"byteOffset":3064,"byteLength":32},{"buffer":0,"byteOffset":3096,"byteLength":8},{"buffer":0,"byteOffset":3104,"byteLength":32},{"buffer":0,"byteOffset":3136,"byteLength":8},{"buffer":0,"byteOffset":3144,"byteLength":32},{"buffer":0,"byteOffset":3176,"byteLength":8},{"buffer":0,"byteOffset":3184,"byteLength":32}],"buffers":[{"byteLength":3216,"uri":"data:application/octet-stream;base64,"}],"accessors":[{"bufferView":0,"componentType":5126,"count":40,"max":[0.5,0.515625,0.0625],"min":[-0.5,-1.8125,-0.1875],"type":"VEC3"},{"bufferView":1,"componentType":5126,"count":40,"max":[0.3162277638912201,0.9486833214759827,1],"min":[-0.3162277638912201,0,-1],"type":"VEC3"},{"bufferView":2,"componentType":5126,"count":40,"max":[3.5,1],"min":[0,0],"type":"VEC2"},{"bufferView":3,"componentType":5123,"count":40,"max":[3,0,0,0],"min":[0,0,0,0],"type":"VEC4"},{"bufferView":4,"componentType":5126,"count":40,"max":[1,0,0,0],"min":[1,0,0,0],"type":"VEC4"},{"bufferView":5,"componentType":5123,"count":60,"max":[39],"min":[0],"type":"SCALAR"},{"bufferView":6,"componentType":5126,"count":4,"max":[1,0,0,0,0,1,1.2246468525851679e-16,0,0,0,1,0,0,0.4375,0,1],"min":[1,0,0,0,0,-1,0,0,0,-1.2246468525851679e-16,-1,0,0,-1.0625,-0.1875,1],"type":"MAT4"},{"bufferView":7,"componentType":5126,"count":2,"max":[0.25],"min":[0],"type":"SCALAR"},{"bufferView":8,"componentType":5126,"count":2,"max":[-0.9961947202682495,0,0,0.08715574443340302],"min":[-0.9961947202682495,0,0,0.08715574443340302],"type":"VEC4"},{"bufferView":9,"componentType":5126,"count":2,"max":[0.25],"min":[0],"type":"SCALAR"},{"bufferView":10,"componentType":5126,"count":2,"max":[0.02181488461792469,0,0,0.9997619986534119],"min":[0.02181488461792469,0,0,0.9997619986534119],"type":"VEC4"},{"bufferView":11,"componentType":5126,"count":2,"max":[0.25],"min":[0],"type":"SCALAR"},{"bufferView":12,"componentType":5126,"count":2,"max":[0.04361938685178757,0,0,0.9990482330322266],"min":[0.04361938685178757,0,0,0.9990482330322266],"type":"VEC4"},{"bufferView":13,"componentType":5126,"count":2,"max":[0.25],"min":[0],"type":"SCALAR"},{"bufferView":14,"componentType":5126,"count":2,"max":[-0.9713420867919922,0,0,0.237685889005661],"min":[-0.9713420867919922,0,0,0.237685889005661],"type":"VEC4"},{"bufferView":15,"componentType":5126,"count":2,"max":[0.25],"min":[0],"type":"SCALAR"},{"bufferView":16,"componentType":5126,"count":2,"max":[0.13052618503570557,0,0,0.9914448857307434],"min":[0.13052618503570557,0,0,0.9914448857307434],"type":"VEC4"},{"bufferView":17,"componentType":5126,"count":2,"max":[0.25],"min":[0],"type":"SCALAR"},{"bufferView":18,"componentType":5126,"count":2,"max":[0.2164396196603775,0,0,0.9762960076332092],"min":[0.2164396196603775,0,0,0.9762960076332092],"type":"VEC4"},{"bufferView":19,"componentType":5126,"count":2,"max":[0.25],"min":[0],"type":"SCALAR"},{"bufferView":20,"componentType":5126,"count":2,"max":[-0.9848077297210693,0,0,0.1736481785774231],"min":[-0.9848077297210693,0,0,0.1736481785774231],"type":"VEC4"},{"bufferView":21,"componentType":5126,"count":2,"max":[0.25],"min":[0],"type":"SCALAR"},{"bufferView":22,"componentType":5126,"count":2,"max":[-0.1736481785774231,0,0,0.9848077297210693],"min":[-0.1736481785774231,0,0,0.9848077297210693],"type":"VEC4"},{"bufferView":23,"componentType":5126,"count":2,"max":[0.25],"min":[0],"type":"SCALAR"},{"bufferView":24,"componentType":5126,"count":2,"max":[-0.08715574443340302,0,0,0.9961947202682495],"min":[-0.08715574443340302,0,0,0.9961947202682495],"type":"VEC4"},{"bufferView":25,"componentType":5126,"count":2,"max":[0.25],"min":[0],"type":"SCALAR"},{"bufferView":26,"componentType":5126,"count":2,"max":[-0.8660253882408142,0,0,0.5],"min":[-0.8660253882408142,0,0,0.5],"type":"VEC4"},{"bufferView":27,"componentType":5126,"count":2,"max":[0.25],"min":[0],"type":"SCALAR"},{"bufferView":28,"componentType":5126,"count":2,"max":[0.08715574443340302,0,0,0.9961947202682495],"min":[0.08715574443340302,0,0,0.9961947202682495],"type":"VEC4"},{"bufferView":29,"componentType":5126,"count":2,"max":[0.25],"min":[0],"type":"SCALAR"},{"bufferView":30,"componentType":5126,"count":2,"max":[0.15212339162826538,0,0,0.9883615374565125],"min":[0.15212339162826538,0,0,0.9883615374565125],"type":"VEC4"},{"bufferView":31,"componentType":5126,"count":2,"max":[0.25],"min":[0],"type":"SCALAR"},{"bufferView":32,"componentType":5126,"count":2,"max":[-0.4226182699203491,0,0,0.9063078165054321],"min":[-0.4226182699203491,0,0,0.9063078165054321],"type":"VEC4"},{"bufferView":33,"componentType":5126,"count":2,"max":[0.25],"min":[0],"type":"SCALAR"},{"bufferView":34,"componentType":5126,"count":2,"max":[0.2798290252685547,0,0,0.9600498676300049],"min":[0.2798290252685547,0,0,0.9600498676300049],"type":"VEC4"},{"bufferView":35,"componentType":5126,"count":2,"max":[0.25],"min":[0],"type":"SCALAR"},{"bufferView":36,"componentType":5126,"count":2,"max":[0.15212339162826538,0,0,0.9883615374565125],"min":[0.15212339162826538,0,0,0.9883615374565125],"type":"VEC4"}],"materials":[{"pbrMetallicRoughness":{"metallicFactor":0,"roughnessFactor":1},"alphaMode":"MASK","alphaCutoff":0.05}],"meshes":[{"primitives":[{"mode":4,"attributes":{"POSITION":0,"NORMAL":1,"TEXCOORD_0":2,"JOINTS_0":3,"WEIGHTS_0":4},"indices":5,"material":0}]}],"skins":[{"inverseBindMatrices":6,"joints":[3,2,1,0],"skeleton":3}],"animations":[{"name":"float_idle","samplers":[{"input":7,"output":8,"interpolation":"LINEAR"},{"input":9,"output":10,"interpolation":"LINEAR"},{"input":11,"output":12,"interpolation":"LINEAR"}],"channels":[{"sampler":0,"target":{"node":2,"path":"rotation"}},{"sampler":1,"target":{"node":1,"path":"rotation"}},{"sampler":2,"target":{"node":0,"path":"rotation"}}]},{"name":"float_backward","samplers":[{"input":13,"output":14,"interpolation":"LINEAR"},{"input":15,"output":16,"interpolation":"LINEAR"},{"input":17,"output":18,"interpolation":"LINEAR"}],"channels":[{"sampler":0,"target":{"node":2,"path":"rotation"}},{"sampler":1,"target":{"node":1,"path":"rotation"}},{"sampler":2,"target":{"node":0,"path":"rotation"}}]},{"name":"float_forward","samplers":[{"input":19,"output":20,"interpolation":"LINEAR"},{"input":21,"output":22,"interpolation":"LINEAR"},{"input":23,"output":24,"interpolation":"LINEAR"}],"channels":[{"sampler":0,"target":{"node":2,"path":"rotation"}},{"sampler":1,"target":{"node":1,"path":"rotation"}},{"sampler":2,"target":{"node":0,"path":"rotation"}}]},{"name":"float_side","samplers":[{"input":25,"output":26,"interpolation":"LINEAR"},{"input":27,"output":28,"interpolation":"LINEAR"},{"input":29,"output":30,"interpolation":"LINEAR"}],"channels":[{"sampler":0,"target":{"node":2,"path":"rotation"}},{"sampler":1,"target":{"node":1,"path":"rotation"}},{"sampler":2,"target":{"node":0,"path":"rotation"}}]},{"name":"float_down","samplers":[{"input":31,"output":32,"interpolation":"LINEAR"},{"input":33,"output":34,"interpolation":"LINEAR"},{"input":35,"output":36,"interpolation":"LINEAR"}],"channels":[{"sampler":0,"target":{"node":2,"path":"rotation"}},{"sampler":1,"target":{"node":1,"path":"rotation"}},{"sampler":2,"target":{"node":0,"path":"rotation"}}]}]}